<?xml version="1.0" encoding="utf-8"?>
<!-- Generator: Adobe Illustrator 26.0.1, SVG Export Plug-In . SVG Version: 6.00 Build 0)  -->
<svg version="1.1" xmlns="http://www.w3.org/2000/svg" xmlns:xlink="http://www.w3.org/1999/xlink" x="0px" y="0px"
	 viewBox="0 0 612 792" style="enable-background:new 0 0 612 792;" xml:space="preserve">
<style type="text/css">
	.st0{fill:#FFFFFF;}
	.st1{fill:#FDB726;}
	.st2{fill:#080707;}
	.st3{fill:#9896A8;stroke:#ACACAC;stroke-miterlimit:10;}
	.st4{fill:#262626;}
	.st5{fill:#ABABAB;}
	.st6{fill:none;stroke:#000000;stroke-miterlimit:10;}
	.st7{opacity:0.89;}
	.st8{fill:none;stroke:#000000;stroke-width:0.25;stroke-miterlimit:10;}
	.st9{fill:none;stroke:#000000;stroke-width:0.25;stroke-miterlimit:10;stroke-dasharray:1.0062,1.0062;}
	.st10{opacity:0.38;}
	.st11{fill:#4D4D4E;}
	.st12{fill:#B3B4B4;}
	.st13{fill:#ACACAC;}
	.st14{opacity:0.36;}
	.st15{fill:none;stroke:#000000;stroke-width:0.75;stroke-miterlimit:10;}
	.st16{fill:none;stroke:#000000;stroke-width:0.75;stroke-miterlimit:10;stroke-dasharray:1.0001,1.0001;}
	.st17{opacity:0.25;}
	.st18{fill:none;stroke:#ED2024;stroke-width:0.75;stroke-miterlimit:10;}
	.st19{fill:#808080;stroke:#191919;stroke-width:0.5;stroke-miterlimit:10;}
</style>
<g id="Layer_1">
</g>
<g id="Layer_25">
	<g>
		<g>
			<path d="M153.3,656.5l4.7-5.7c2.2,1.8,5,3,7.3,3c2.5,0,3.6-0.8,3.6-2.2c0-1.5-1.6-2-4.2-3l-3.9-1.6c-3.4-1.3-6.3-4.2-6.3-8.7
				c0-5.3,4.8-9.7,11.6-9.7c3.6,0,7.5,1.3,10.4,4.2l-4.1,5.2c-2.1-1.5-3.9-2.3-6.2-2.3c-2,0-3.3,0.7-3.3,2.1c0,1.5,1.8,2,4.6,3.1
				l3.8,1.5c3.9,1.5,6.1,4.2,6.1,8.5c0,5.3-4.4,10-12.2,10C161.1,660.9,156.6,659.5,153.3,656.5z"/>
			<path d="M181.1,629.3c0-2.4,1.9-4.1,4.6-4.1c2.7,0,4.6,1.7,4.6,4.1s-1.9,4.1-4.6,4.1C183,633.4,181.1,631.7,181.1,629.3z
				 M181.6,636.4h8.3v24h-8.3V636.4z"/>
			<path d="M195.4,651.9v-25h8.3v25.2c0,1.6,0.8,2.1,1.3,2.1c0.3,0,0.5,0,0.9-0.1l1,6c-0.9,0.4-2.2,0.7-4,0.7
				C197.2,660.9,195.4,657.3,195.4,651.9z"/>
			<path d="M207.5,636.4h8.3l2.6,10.5c0.6,2.4,1.2,4.9,1.7,7.5h0.2c0.6-2.6,1.2-5.1,1.7-7.5l2.6-10.5h7.9l-7.6,24h-9.5L207.5,636.4z
				"/>
			<path d="M234.6,648.4c0-7.8,5.7-12.6,11.5-12.6c7.1,0,10.5,5.2,10.5,11.6c0,1.4-0.2,2.9-0.3,3.5h-13.7c0.8,2.9,2.9,3.8,5.6,3.8
				c1.6,0,3.2-0.5,4.9-1.4l2.7,4.9c-2.6,1.8-6,2.8-8.7,2.8C240,660.9,234.6,656.3,234.6,648.4z M249.6,645.5c0-1.8-0.8-3.5-3.3-3.5
				c-1.8,0-3.4,1.1-3.8,3.5H249.6z"/>
			<path d="M261.1,636.4h6.7l0.6,4.1h0.2c1.8-3.3,4.5-4.7,6.8-4.7c1.5,0,2.3,0.2,3,0.5l-1.3,7.1c-0.9-0.2-1.6-0.4-2.7-0.4
				c-1.7,0-3.8,1.1-5,4v13.3h-8.3V636.4z"/>
			<path d="M291.4,629.2h8.3v11.6h9.3v-11.6h8.3v31.2H309V648h-9.3v12.4h-8.3V629.2z"/>
			<path d="M322.2,648.4c0-8,5.8-12.6,11.9-12.6s11.9,4.6,11.9,12.6s-5.8,12.6-11.9,12.6S322.2,656.3,322.2,648.4z M337.6,648.4
				c0-3.6-1-6-3.5-6s-3.5,2.3-3.5,6s1,6,3.5,6S337.6,652,337.6,648.4z"/>
			<path d="M350.4,636.4h6.7l0.6,4.1h0.2c1.8-3.3,4.5-4.7,6.8-4.7c1.5,0,2.3,0.2,3,0.5l-1.3,7.1c-0.9-0.2-1.6-0.4-2.7-0.4
				c-1.7,0-3.8,1.1-5,4v13.3h-8.3V636.4z"/>
			<path d="M370.4,636.4h6.7l0.6,2.9h0.2c1.9-1.8,4.3-3.5,7.6-3.5c5.3,0,7.5,3.8,7.5,9.8v14.8h-8.3v-13.7c0-3.1-0.8-3.8-2.4-3.8
				c-1.5,0-2.4,0.7-3.6,1.8v15.7h-8.3V636.4z"/>
			<path d="M397.1,648.4c0-7.8,5.7-12.6,11.5-12.6c7.1,0,10.5,5.2,10.5,11.6c0,1.4-0.2,2.9-0.3,3.5h-13.7c0.8,2.9,2.9,3.8,5.6,3.8
				c1.6,0,3.2-0.5,4.9-1.4l2.7,4.9c-2.6,1.8-6,2.8-8.7,2.8C402.5,660.9,397.1,656.3,397.1,648.4z M412.1,645.5
				c0-1.8-0.8-3.5-3.3-3.5c-1.8,0-3.4,1.1-3.8,3.5H412.1z"/>
			<path d="M424.7,651.1v-8.4h-3.2v-6.1l3.6-0.3l1-6.2h6.8v6.2h5.5v6.4h-5.5v8.2c0,2.6,1.3,3.5,2.9,3.5c0.8,0,1.5-0.2,2.1-0.4l1.2,6
				c-1.2,0.4-3,0.9-5.7,0.9C427.2,660.9,424.7,657,424.7,651.1z"/>
			<path d="M440.9,657.6l3.6-5.1c2.2,1.6,4.2,2.4,5.9,2.4c1.7,0,2.4-0.5,2.4-1.4c0-1.2-2.2-1.8-4.6-2.8c-2.8-1.1-6-3.2-6-7.1
				c0-4.7,3.8-7.8,9.5-7.8c3.9,0,6.7,1.6,8.8,3.2l-3.6,4.9c-1.7-1.2-3.4-2-4.9-2c-1.4,0-2.1,0.4-2.1,1.3c0,1.2,2.1,1.7,4.5,2.6
				c2.9,1.1,6.1,2.9,6.1,7.2c0,4.5-3.6,8-10.3,8C447.1,660.9,443.4,659.6,440.9,657.6z"/>
		</g>
	</g>
</g>
<g id="Layer_2">
	<path class="st1" d="M339.5,405c22.8,7.5,66.5,36.8-26,146.9c-7.3,8.7-18.6,12.9-29.8,11.1l0,0c-10.7-1.7-19.3-9.8-21.5-20.4
		c-3.7-17.5-7.7-46.1-3.3-77.6c4.9-31.3,34.3-54.6,49.7-59.5c2.8-0.9,6.8-1.7,11.1-2.2C326.3,402.4,333.1,402.9,339.5,405z"/>
</g>
<g id="Layer_26">
</g>
<g id="Layer_3">
</g>
<g id="Layer_4">
	<path class="st2" d="M356.1,443.3l-0.4,1.8c0,0.1-0.2,0.2-0.4,0l-4.2-3.4c-0.1-0.1-0.1-0.2-0.1-0.3l0.7-1.6c0-0.1,0.2-0.1,0.3,0
		l3.9,3.2C356.1,443.2,356.1,443.2,356.1,443.3z"/>
	<path class="st2" d="M354.2,447.9l-0.4,1.8c0,0.1-0.2,0.2-0.4,0l-4.2-3.4c-0.1-0.1-0.1-0.2-0.1-0.3l0.7-1.6c0-0.1,0.2-0.1,0.3,0
		l3.9,3.2C354.2,447.7,354.2,447.8,354.2,447.9z"/>
	<path class="st2" d="M352.2,452.8l-0.4,1.8c0,0.1-0.2,0.2-0.4,0l-4.2-3.4c-0.1-0.1-0.1-0.2-0.1-0.3l0.7-1.6c0-0.1,0.2-0.1,0.3,0
		l3.9,3.2C352.2,452.7,352.2,452.7,352.2,452.8z"/>
</g>
<g id="Layer_16">
	<g>
		<path d="M278.3,305.5l-0.9,2.1c-0.3,0.8,0,1.8,0.8,2.1l7,3c0.8,0.3,1.8,0,2.1-0.8l0.9-2.1c0.3-0.8,0-1.8-0.8-2.1l-7-3
			C279.6,304.3,278.6,304.7,278.3,305.5z"/>
		<path d="M281.3,301.9l-1.3,3.1l7.3,3.1l1.4-3.2c0.4-1,0-2.2-1-2.6l-3.6-1.5C283,300.4,281.8,300.9,281.3,301.9z"/>
		<polygon class="st1" points="292.1,268.8 290.5,268.2 289.4,264.3 294.3,239.8 299,229.3 300.2,230 		"/>
		<path class="st3" d="M297,248.4l2.2,6.1l2.1,0.9l2.1-7.3l-1-3.6c0,0,18.7-77.1,17.8-88c0-0.4,0-0.8,0.1-1.3
			c1.4-9,1.8-18.9,1.8-18.9s-0.3-5.9-1.3-6.8s-3.5,6-3.5,6s-7.8,14.7-8.9,23.3c-0.1,0.7-0.2,1.3-0.3,1.9c-2.5,11-9.1,68.4-9.1,68.4
			l0.9,0.6l6.3-32.3l4.1-7.8l-0.2,4.7l-9.9,45.2L297,248.4z"/>
		<path class="st4" d="M283.6,301.3l1.5-5.5c0.1-0.2,0.1-0.4,0.1-0.6c0-0.9-0.1-3.8,0.2-5.4c0.3-2,2.4-8.2,3.8-9
			c1.3-0.8,16.1-77.4,17.1-82.8c0-0.2,0.1-0.4,0.2-0.6l4-7.6l-0.2,4.4c0,0.1,0,0.2,0,0.4l-9.8,45c0,0.1,0,0.2-0.1,0.3l-2.9,7.8
			c-0.2,0.5-0.2,1,0,1.5l1.6,4.6c0.2,0.6,0.6,1.1,1.2,1.3l1.2,0.5l-13.5,47.1c-0.4,1.3-1.8,1.9-3,1.3c0,0,0,0-0.1,0
			C283.8,303.4,283.3,302.3,283.6,301.3z"/>
		<path class="st1" d="M288.4,300.2c0,0,0.8-1.5-5,0.6c-1.2-2.2-1-4.4-0.1-5.1c0.9-0.6,4.1-6,4-6.8c-0.2-0.8,5-19.8,8.4-19.2
			c0.6,2.3-0.8,10.6-0.8,10.6L288.4,300.2z"/>
	</g>
</g>
<g id="Layer_21">
	<g>
		<polygon class="st4" points="296.5,383 277.9,391.5 279.2,394.6 298.7,389.4 		"/>
		<circle class="st4" cx="279" cy="392.8" r="2"/>
		<polygon class="st4" points="275.5,403.7 273.5,401 275.7,395.9 274.5,394 268.6,394.2 266.2,391.3 277.3,391.6 278.6,394.8 		"/>
	</g>
</g>
<g id="Layer_22">
	<path class="st5" d="M252,303.8c-0.6-2-3-9.9-7.3-12c-0.1,0-0.1,0-0.2,0c-5.3,4.1-12.4,6.2-13.9,6.6c-0.1,0-0.2,0.2-0.1,0.3
		l3.2,3.2c0,0,0.1,0.1,0.1,0c1.1-0.1,13-0.6,17.9,2C251.9,304,252.1,304,252,303.8z"/>
	<path class="st5" d="M230.6,298.7c0,0-4-4.1-4.8-4.4c-0.8-0.4,10.8-7,11.9-10.4c2,0.8,6.9,6.9,7,7.9
		C243.7,292.5,240.2,295.9,230.6,298.7z"/>
</g>
<g id="Layer_5">
	<path class="st1" d="M321.4,394.6c-9.2,9.8-63.1-7.4-81.7-24.5c-18.7-17.1-16.9-30.8-15.5-51.4c1.1-16.6,19.2-23.5,24.2-26.7
		c1.3-0.8,2.6-1.4,4.1-1.7c0,0,15.4-8.2,37.9,1.7c25.2,11.1,34.6,37.6,38.8,64.8C330.8,367,332.4,382.8,321.4,394.6z"/>
	<path class="st2" d="M299.1,364.8l-0.4,1.8c0,0.1-0.2,0.2-0.4,0l-4.2-3.4c-0.1-0.1-0.1-0.2-0.1-0.3l0.7-1.6c0-0.1,0.2-0.1,0.3,0
		l3.9,3.2C299,364.7,299.1,364.8,299.1,364.8z"/>
	<path class="st2" d="M302.5,360.7l-0.4,1.8c0,0.1-0.2,0.2-0.4,0l-4.2-3.4c-0.1-0.1-0.1-0.2-0.1-0.3l0.7-1.6c0-0.1,0.2-0.1,0.3,0
		l3.9,3.2C302.4,360.6,302.5,360.7,302.5,360.7z"/>
	<path class="st2" d="M305.9,357l-0.4,1.8c0,0.1-0.2,0.2-0.4,0l-4.2-3.4c-0.1-0.1-0.1-0.2-0.1-0.3l0.7-1.6c0-0.1,0.2-0.1,0.3,0
		l3.9,3.2C305.8,356.8,305.9,356.9,305.9,357z"/>
</g>
<g id="Layer_23">
	<g class="st7">
		<g>
			<path class="st8" d="M235.2,299.9c0,0-0.1,0.2-0.2,0.5"/>
			<path class="st9" d="M234.7,301.3c-3.4,10.5-20.3,76.8,78.8,95"/>
			<path class="st8" d="M314,396.4c0.2,0,0.3,0.1,0.5,0.1"/>
		</g>
	</g>
</g>
<g id="Layer_24">
	<ellipse transform="matrix(0.827 -0.5623 0.5623 0.827 -155.9451 196.7708)" cx="241.7" cy="351.7" rx="11" ry="17.8"/>
	<g class="st10">
		<defs>
			
				<ellipse id="SVGID_00000062155124049796074890000017078017357849764504_" transform="matrix(0.827 -0.5623 0.5623 0.827 -155.9895 196.7838)" class="st10" cx="241.7" cy="351.8" rx="10.1" ry="17.6"/>
		</defs>
		<clipPath id="SVGID_00000070805049502004885680000012621125484152223625_">
			<use xlink:href="#SVGID_00000062155124049796074890000017078017357849764504_"  style="overflow:visible;"/>
		</clipPath>
		<g style="clip-path:url(#SVGID_00000070805049502004885680000012621125484152223625_);">
			
				<image style="overflow:visible;" width="2048" height="1536" xlink:href="9DA46691.jpg"  transform="matrix(3.561647e-02 0 0 3.561647e-02 221.4931 333.845)">
			</image>
		</g>
	</g>
</g>
<g id="Layer_6">
	<g>
		<path class="st1" d="M187.4,278.6c0,0,23.2,20.5,33.5,15.8c3.1-1,5.3-2.8,7.1-5.9c0.3-0.6,0.7-1.1,1.1-1.6
			c1.8-2.3,3.1-7.6,2.5-8.7c1.5-0.8,12.7-19,12.7-19s-4.5,40.6-20.1,45.5C221,306,198.6,299.6,187.4,278.6z"/>
		<path class="st11" d="M221.1,299.3c0,0-24.9-6.8,4.5-4.7c9.2-7.8,19.2-38.4,19.2-38.4s2.3-13-8.1-16.7c-9-0.4-22.6-3.4-22.4,9
			c-9,2.4-9,2.4-9,2.4l-3.8-2.8c0,0,1.6-4.8-1.3-4c-13.4,3.5-17.8,8.5-18.6,8.8c-0.7,0.4-1.4,6.6,1.9,9.1
			C187,264.7,221.1,299.3,221.1,299.3z"/>
		<path class="st4" d="M221.3,299.4c0,0-7.3-46.6,3.3-56c8.1-6.1,17.3-5.5,20.4,7.2C245.8,264.3,236.6,289.3,221.3,299.4z"/>
		<path class="st4" d="M221.3,299.4c0,0-14.7-44.2-28.4-47.7c-10-1.6-17.9,3.1-14.8,15.8C183.7,280,203.2,297.5,221.3,299.4z"/>
		<path class="st12" d="M221.3,299.4v-0.6c0,0-5.6-53.8-0.7-59.2c0.6,0-13.8-0.7-19.6,4.6C199.8,249.8,220.2,297.5,221.3,299.4z"/>
		<path class="st4" d="M212.9,242c0,0,4-36.7,23.1-57.1c2,0,2.3,1.1,2.3,1.1s-15.8,8-24,56H212.9z"/>
		<path class="st4" d="M205.4,243.9c0,0-12.9-34.6-36.4-49.6c-1.9,0.5-2,1.6-2,1.6s17.3,3.9,37,48.4L205.4,243.9z"/>
		<circle class="st4" cx="167" cy="195.7" r="3.4"/>
		<circle class="st4" cx="239.4" cy="184.9" r="3.4"/>
	</g>
</g>
<g id="Layer_8">
	<path class="st13" d="M339.2,404.8c-0.6-2-3-9.9-7.3-12c-0.1,0-0.1,0-0.2,0c-5.3,4.1-12.4,6.2-13.9,6.6c-0.1,0-0.2,0.2-0.1,0.3
		l3.2,3.2c0,0,0.1,0.1,0.1,0c1.1-0.1,13-0.6,17.9,2C339.1,405,339.3,404.9,339.2,404.8z"/>
	<path class="st13" d="M317.8,399.7c0,0-4-4.1-4.8-4.4c-0.8-0.4,10.8-7,11.9-10.4c2,0.8,6.9,6.9,7,7.9
		C330.9,393.4,327.4,396.8,317.8,399.7z"/>
	<g class="st14">
		<g>
			<path class="st15" d="M317.7,417.9c0,0-0.1,0.1-0.3,0.4"/>
			<path class="st16" d="M316.7,419c-6.6,7.3-43.4,51.6-39.7,128.4"/>
			<path class="st15" d="M277.1,547.8c0,0.2,0,0.3,0,0.5"/>
		</g>
	</g>
</g>
<g id="Layer_9">
</g>
<g id="Layer_10">
	<path d="M342.3,406c2.4,1.4-11.1,16.1-11.1,16.1l-10.3-1.5l1.8-2.3l-8.7-0.9l-3.9,3.2c0,0-1.3,0-7.3,0c0.9-8.8,16.4-17.5,16.4-17.5
		S333.8,401.2,342.3,406z"/>
	<g class="st17">
		<defs>
			<path id="SVGID_00000021102877144238824280000005126268996740398782_" class="st17" d="M342.3,406c2.4,1.4-11.1,16.1-11.1,16.1
				l-10.3-1.5l1.8-2.3l-8.7-0.9l-3.9,3.2c0,0-1.3,0-7.3,0c0.9-8.8,16.4-17.5,16.4-17.5S333.8,401.2,342.3,406z"/>
		</defs>
		<clipPath id="SVGID_00000090275151291970678310000010848257525705935528_">
			<use xlink:href="#SVGID_00000021102877144238824280000005126268996740398782_"  style="overflow:visible;"/>
		</clipPath>
		<g style="clip-path:url(#SVGID_00000090275151291970678310000010848257525705935528_);">
			
				<image style="overflow:visible;" width="2048" height="1536" xlink:href="9DA46693.jpg"  transform="matrix(5.395667e-02 0 0 5.395667e-02 298.2395 392.5046)">
			</image>
		</g>
	</g>
	<path class="st4" d="M326.4,535.9c0,0,38.2-46.2,42.2-78.4c-4.5,11-4.5,11-4.5,11l-15.1,3.4l-22.7,41.6l2.2,14.3L326.4,535.9z"/>
</g>
<g id="Layer_7">
</g>
<g id="Layer_11">
	<path class="st4" d="M267.8,540.1c0,0-0.2,11.4,17.2,6.4c9.6-2.6,14.2-5.8,13.7-2.9s-1.9,3.9-0.7,8.6c-1,4.5-13.2,19.7-28.8,19.5
		c-3.9-1.1-10.6-5.1-10.6-5.1s9.8-13.9,7.9-20.8C264.6,539,265.8,538,267.8,540.1z"/>
	<path class="st19" d="M231.4,584.5c0,0,35.9-4.4,52.9-26.7c-8.8-10.2-13.8-9.3-18-9.8"/>
</g>
<g id="Layer_14">
</g>
<g id="Layer_13">
</g>
<g id="Layer_12">
	<g>
		<path class="st4" d="M299.1,297l5.5-2.7c0.2-0.1,0.4-0.2,0.7-0.2c1-0.2,4-0.7,5.7-1.3c2-0.8,8.2-4.3,8.8-5.9
			c0.6-1.5,78.8-33.2,84.3-35.4c0.2-0.1,0.4-0.2,0.6-0.3l7.3-5.8l-4.7,1.1c-0.1,0-0.3,0.1-0.4,0.1l-45.7,19.8
			c-0.1,0-0.2,0.1-0.3,0.1l-7.7,4.7c-0.5,0.3-1,0.4-1.6,0.3l-5.2-0.7c-0.7-0.1-1.3-0.5-1.6-1l-0.8-1.1l-47.1,24.1
			c-1.3,0.7-1.7,2.3-0.8,3.5c0,0,0,0,0,0.1C296.8,297.2,298.1,297.5,299.1,297z"/>
		<path d="M295.8,303.4l-2.2,1.5c-0.7,0.5-1.7,0.3-2.2-0.4l-4.8-7c-0.5-0.7-0.3-1.7,0.4-2.2l2.2-1.5c0.7-0.5,1.7-0.3,2.2,0.4l4.8,7
			C296.8,301.9,296.6,302.9,295.8,303.4z"/>
		<path d="M299,299.4l-3.2,2.2l-4.8-7.1l3.3-2.2c0.9-0.6,2.1-0.4,2.8,0.5l2.5,3.7C300.2,297.5,299.9,298.8,299,299.4z"/>
		<polygon class="st1" points="331.7,281.2 332.8,282.7 337.1,283.1 362.1,272.9 372.3,265.6 371.2,264.5 		"/>
		<path class="st3" d="M352.4,271.7l-7-1.1l-1.3-2l7.3-3.8l4,0.3c0,0,77.9-35.8,89.7-37.1c0.5-0.1,0.9-0.2,1.3-0.3
			c9.2-3.4,19.7-5.8,19.7-5.8s6.4-0.9,7.5,0s-5.6,4.9-5.6,4.9s-14,11.4-22.9,14.3c-0.7,0.2-1.3,0.4-2,0.7
			c-11.1,4.9-70.7,23.8-70.7,23.8l-0.8-0.8l32.9-13.4l7.4-6l-5,1.2L361,266.5L352.4,271.7z"/>
		<path class="st1" d="M299.2,291.6c0,0,1.4-1.2,0.4,5.4c2.5,0.8,4.9,0.2,5.4-1s5.5-5.6,6.4-5.6s19.9-9.4,18.6-12.8
			c-2.5-0.2-11.1,3.1-11.1,3.1L299.2,291.6z"/>
	</g>
</g>
<g id="Layer_15">
	<path class="st4" d="M266.2,443.7v6.1c0,0-4.9,27.8-5.2,36.4l-4.1,7.9C256.9,494.1,255.9,455.6,266.2,443.7z"/>
</g>
<g id="Layer_17">
</g>
<g id="Layer_18">
	<path class="st4" d="M297.1,307.6c0,0-2.8,9.6-4.9,11.9s2.4,7.8,2.4,7.8s18.1-12.7,16.1-19.7c-5.2-5.6-10.2-9.8-10.2-9.8
		L297.1,307.6z"/>
</g>
<g id="Layer_19">
</g>
<g id="Layer_20">
	<g>
		<polygon class="st4" points="306.6,306 349.8,325.6 346.6,332.6 301.3,320.5 		"/>
		<polygon class="st4" points="329.5,390 300.5,402.7 298.3,397.9 324.3,380.8 		"/>
		<circle class="st4" cx="348.7" cy="328.8" r="5.5"/>
		<circle class="st4" cx="326.5" cy="385.3" r="6.5"/>
		<circle class="st4" cx="300.1" cy="400" r="3.1"/>
		<polygon class="st4" points="283.9,392.8 285,397.8 293.2,400.7 294.1,404 287.7,410.6 288.7,416.4 299.7,403.2 297.5,398.4 		"/>
		<polyline class="st4" points="342.4,330 325.5,384.2 332.4,386.9 352.6,330 		"/>
	</g>
</g>
</svg>
